PathFileType	4	(X/Y/Z)	G:\Shared drives\HIT\Data\HapticPilot\Subject1\Edited\RHJC1.trc
DataRate	CameraRate	NumFrames	NumMarkers	Units	OrigDataRate	OrigDataStartFrame	OrigNumFrames
50.00	50.00	       10	38	mm	50.00	72	       571
Frame#	Time	r_knee			r_shank(antsup)			r_ankle			r_calc			r_5meta			r_toe			L_knee			L_shank(ant_sup)			L_ankle			L_calc			L_5meta			L_toe			r_mknee			r_mankle			L_mknee			L_mankle			r_sh2			r_sh3			r_sh4			L_sh2			L_sh3			r_thigh1			r_thigh2			r_thigh3			r_thigh4			r_thigh5			L_thigh1			L_thigh2			L_thigh3			L_thigh4			r.ASIS			r.PSIS			L.ASIS			L.PSIS			C7			R_Shoulder			L_Shoulder			Sternum			
		X1	Y1	Z1	X2	Y2	Z2	X3	Y3	Z3	X4	Y4	Z4	X5	Y5	Z5	X6	Y6	Z6	X7	Y7	Z7	X8	Y8	Z8	X9	Y9	Z9	X10	Y10	Z10	X11	Y11	Z11	X12	Y12	Z12	X13	Y13	Z13	X14	Y14	Z14	X15	Y15	Z15	X16	Y16	Z16	X17	Y17	Z17	X18	Y18	Z18	X19	Y19	Z19	X20	Y20	Z20	X21	Y21	Z21	X22	Y22	Z22	X23	Y23	Z23	X24	Y24	Z24	X25	Y25	Z25	X26	Y26	Z26	X27	Y27	Z27	X28	Y28	Z28	X29	Y29	Z29	X30	Y30	Z30	X31	Y31	Z31	X32	Y32	Z32	X33	Y33	Z33	X34	Y34	Z34	X35	Y35	Z35	X36	Y36	Z36	X37	Y37	Z37	X38	Y38	Z38	

72	1.420	1172.68494	578.94562	925.77338	1261.75684	578.72443	913.34418	1603.14258	592.37891	731.05646	1609.38135	629.33105	627.67285	1716.58472	581.57379	807.09705	1691.84937	646.08533	851.25317	769.82867	840.98773	568.74481	801.66138	832.03333	448.22659	700.17957	805.93536	112.93117	622.85187	753.32288	74.66973	814.58002	849.12494	41.87842	862.66309	792.87177	68.53243	1181.15466	705.60541	910.38104	1592.61292	688.22876	737.26563	803.16290	719.45380	567.66510	731.26410	715.24713	121.34760	1373.00708	579.40369	868.05609	1236.61121	561.87531	843.68402	1340.52502	557.51764	793.47443	714.20068	852.16986	469.55038	697.86298	842.46857	348.48758	890.62701	557.24200	1085.32690	1000.36011	565.79376	1052.19934	1018.25537	546.35651	1000.12769	865.29089	520.29510	981.14429	978.38336	541.75574	948.70935	817.66730	890.23004	845.77167	838.71527	874.92871	709.95129	700.95270	886.15625	827.15802	727.31494	861.77405	695.73590	806.64526	626.30353	1156.30444	615.26208	681.96185	1112.72852	790.06219	873.46625	1103.14600	615.87347	761.69183	1100.30322	719.09570	780.77649	1615.72546	752.39307	617.15942	1585.88904	771.44977	959.09338	1571.97290	845.60431	774.31573	1522.69995	
73	1.440	1174.93262	579.03607	930.41199	1263.56201	579.36426	916.38007	1605.07446	592.57172	734.34460	1611.75232	629.52118	631.12903	1718.32068	581.98590	810.58722	1693.49329	646.40039	854.94269	770.98145	841.49756	568.63446	802.58606	832.34595	447.95477	700.21997	804.54034	112.59301	622.93256	753.22955	74.78882	814.58173	849.12451	41.87474	862.69550	792.91058	68.50618	1182.81860	706.26709	913.28088	1594.58813	688.62695	740.59033	804.12671	719.95270	567.52875	731.38690	715.22968	121.35576	1374.82727	579.95966	871.12915	1238.57874	562.48035	846.67889	1342.44434	557.92523	796.61694	715.33807	852.67761	469.30771	698.63660	842.72388	348.34363	891.03986	557.61731	1085.81116	1001.14264	566.37769	1053.77771	1019.39703	546.84387	1001.73572	866.63977	520.78796	981.49750	979.92090	542.16437	949.91083	818.92120	891.01837	845.70764	839.93909	875.52051	709.95105	702.28516	887.08417	827.19000	728.64594	862.44330	695.80219	807.31885	626.73523	1156.28320	616.02484	682.24927	1112.03540	790.90179	873.78864	1103.16089	616.66711	762.05554	1099.66895	718.34735	780.65546	1615.51733	751.76648	617.03979	1585.70984	770.59125	959.01843	1571.77283	845.06805	774.23322	1522.81677	
74	1.460	1176.03198	579.48303	930.22388	1264.34546	579.96588	915.87946	1605.19934	592.53717	732.50671	1611.64160	629.45581	629.28821	1718.75635	581.91113	808.43231	1694.14905	646.47125	852.77521	772.45490	842.19696	568.37335	803.84698	832.97571	447.65918	700.40356	804.51178	112.69176	623.00983	753.19611	74.91904	814.58551	849.12830	41.90906	862.75104	792.92737	68.44953	1183.78503	706.73987	913.25073	1594.87878	688.54657	738.65039	805.43219	720.56659	567.47015	731.55151	715.19989	121.36358	1375.59216	580.43842	870.26697	1239.10864	562.82819	846.33496	1342.84338	558.23291	795.88013	716.62073	853.40845	469.09497	699.59711	843.21790	348.28381	891.61188	558.18683	1085.13013	1001.95300	566.86096	1053.40076	1020.24091	547.37592	1001.39447	867.54047	521.32703	980.84009	980.89117	542.73816	949.39832	820.00360	891.53241	845.79132	841.18665	876.34387	710.07159	703.10162	887.62305	827.11847	729.90259	863.25562	695.77997	807.88861	626.83356	1155.84119	616.86237	682.76276	1111.14355	791.89844	874.09155	1103.22021	617.34387	762.45514	1099.28369	717.41528	780.66467	1615.31604	751.02557	617.03674	1585.63843	769.54840	959.10809	1571.53662	844.48041	774.35431	1522.97156	
75	1.480	1175.92200	579.70245	926.71985	1264.31177	579.96136	911.93164	1603.73535	592.34100	725.56464	1608.96240	629.21027	622.31311	1718.01709	581.53290	800.27081	1693.95435	645.78815	844.92889	774.13446	843.15271	568.18201	805.10016	833.74200	447.29639	700.57050	805.23785	113.04733	623.10706	753.11230	75.08178	814.65912	849.15527	41.93675	862.83838	792.95984	68.39777	1183.92200	707.11780	909.93719	1593.49072	688.24487	731.90863	807.21222	721.55634	567.18793	731.75952	715.26154	121.44309	1375.12085	580.23975	865.11511	1238.37598	563.22675	842.43835	1341.63977	558.42242	791.09686	718.02307	853.98029	469.01682	700.94043	843.45099	348.27957	892.56561	558.56836	1083.45984	1002.50677	567.01410	1051.08862	1020.69873	547.82874	998.90564	867.86188	522.02985	979.07910	981.11224	543.39044	947.20416	821.40033	892.52802	845.48676	842.82611	877.11218	709.87689	704.80566	888.63586	826.55841	731.36871	863.95728	695.40302	808.45398	626.96857	1155.02307	617.58099	683.33044	1110.45911	793.90106	874.57837	1103.38489	618.38495	763.10205	1098.76062	716.32690	780.71710	1615.07239	750.27448	617.11871	1585.57263	768.36456	959.31036	1571.46716	843.87866	774.63916	1523.16919	
76	1.500	1174.70654	579.96075	920.01312	1263.18982	579.72620	904.49005	1600.17737	591.95654	713.80035	1603.82190	629.24182	610.77716	1715.61316	580.80536	786.08978	1692.83289	644.63416	831.93433	775.67590	844.10364	567.93140	806.52161	834.31036	446.74246	700.75812	804.64441	113.05692	623.18439	752.98822	75.22358	814.65100	849.13812	41.93094	862.90491	792.98944	68.33436	1183.22437	707.25177	904.17938	1590.34692	687.85901	720.60504	809.15753	722.50018	566.90289	732.00262	715.08514	121.50941	1373.34399	579.76990	856.29352	1236.32178	563.28912	835.44177	1338.77661	558.62012	782.62537	719.52600	854.43079	468.66394	701.67798	843.96741	348.10632	893.16498	559.10260	1080.31702	1003.02106	567.13733	1047.16821	1020.46930	548.13611	994.66559	867.44440	522.58246	976.26740	980.39404	543.98755	943.31891	821.93665	893.97766	845.38495	844.19812	878.33313	709.98212	705.97607	889.47949	826.06006	733.16608	864.49634	694.98877	809.23975	627.23578	1153.83057	618.33673	684.21393	1109.66931	794.68518	875.13690	1103.10205	618.96796	764.10077	1098.38611	715.26184	780.85034	1614.83667	749.72168	617.35779	1585.50952	767.09326	959.56659	1571.46301	843.23798	774.99579	1523.46021	
77	1.520	1173.01965	579.63000	911.91730	1260.98389	579.23993	894.09875	1595.05566	591.33936	697.76971	1596.31287	629.20752	594.99677	1711.73120	578.81488	767.70587	1690.86011	642.81110	814.79785	777.47888	845.23932	567.54987	808.08337	835.05847	446.20764	700.99976	804.62561	113.03165	623.24243	752.91364	75.35466	814.66241	849.15442	41.91382	862.98285	793.04895	68.26801	1181.83630	707.13593	896.20557	1585.12317	686.51166	704.99225	811.02917	723.37427	566.77856	732.15302	715.03357	121.54675	1370.31152	579.09406	844.10101	1232.94067	564.30164	825.14044	1334.17383	558.64032	770.84961	721.08911	855.17957	468.49521	702.90289	844.45282	347.80148	893.74939	559.69922	1076.44519	1003.03387	567.36804	1041.55359	1019.79541	548.49512	988.92035	865.85742	524.49512	972.56836	978.81555	544.57086	938.21539	823.26550	894.93433	844.96136	845.80487	879.48309	709.62842	707.02197	889.96960	825.65601	734.82019	865.13141	694.47040	810.16217	627.48859	1152.43469	619.19092	685.34583	1109.03040	795.78937	875.72345	1102.70178	619.90356	765.19055	1098.03564	714.17157	781.11169	1614.64685	749.33832	617.59351	1585.46289	765.91205	959.89557	1571.46057	842.71869	775.46552	1523.77002	
78	1.540	1170.09705	579.52924	900.86816	1257.77002	578.68152	881.23468	1587.42932	590.23425	677.68842	1587.04712	628.56366	575.22791	1706.20276	577.24146	744.71179	1687.48669	639.75891	792.80139	779.56842	846.40613	567.01318	809.88501	835.94788	445.68121	701.16797	804.29883	113.14130	623.32922	752.82581	75.49998	814.66083	849.14288	41.92762	863.07404	793.13263	68.22201	1179.59546	707.05060	885.97327	1578.32336	685.60559	685.82800	813.13403	724.58966	566.36053	732.42352	715.16467	121.55894	1366.07251	578.43036	828.87561	1228.07947	564.50269	812.81183	1328.12720	558.49994	756.24829	723.06213	856.21527	468.18643	704.80457	844.90131	347.55215	894.26886	560.43243	1071.91003	1002.90527	567.66455	1034.81799	1018.42389	548.93274	981.79047	864.19153	525.23218	969.15564	976.43652	545.16229	931.94598	824.68140	895.78967	844.67633	847.35211	880.78094	709.36157	708.41003	890.57404	824.91406	736.37579	866.19977	694.09778	810.91785	627.73260	1150.87158	619.89880	686.40741	1108.56714	796.85022	876.48608	1102.15808	620.86749	766.57593	1097.78540	713.18573	781.42987	1614.33923	748.96936	617.95135	1585.47058	764.71399	960.37042	1571.46973	842.45123	776.16064	1524.12793	
79	1.560	1166.49072	579.34705	888.54633	1253.09949	578.08179	867.53406	1578.29138	589.00244	654.19397	1573.92993	627.99976	551.75586	1697.91125	575.09644	718.15790	1678.80469	637.64703	766.94226	781.81293	847.57336	566.33893	811.64374	836.81659	445.03174	701.52264	804.29590	113.17200	623.43488	752.76593	75.64110	814.68909	849.12714	41.87685	863.14984	793.14111	68.09217	1176.11963	706.98981	873.45984	1569.10803	684.32074	663.17969	815.51007	725.92731	565.90808	732.56744	715.14471	121.65565	1360.26575	577.55701	811.19464	1221.94287	563.59027	799.07703	1320.53601	558.27258	739.56201	724.46631	857.53998	467.91132	705.73248	845.69275	347.48590	894.64874	561.47003	1066.84253	1002.17273	568.35419	1026.97961	1016.64813	549.38867	973.99170	861.90039	525.86090	965.68213	973.49609	545.57922	925.10217	825.73767	897.48041	844.27106	848.90607	882.22046	709.11481	709.78302	892.13867	824.40851	738.13678	867.40869	693.53467	811.77606	627.99744	1149.00452	620.78534	687.84644	1108.18518	798.33624	877.20264	1101.65466	621.58441	767.98907	1097.57703	712.32001	781.79742	1614.19873	748.64545	618.37885	1585.51477	763.60278	960.75134	1571.44824	841.99091	776.76465	1524.48889	
80	1.580	1161.84607	579.30139	874.91974	1247.94495	576.77539	849.94562	1565.94409	587.09149	628.64478	1559.02942	626.35791	525.69257	1688.38586	573.01941	689.21704	1670.49646	635.39844	737.81964	783.57379	848.83691	565.76715	813.23340	837.62079	444.47028	701.68732	804.34534	113.27999	623.50293	752.74072	75.77905	814.67902	849.17523	41.84160	863.24390	793.13843	68.02073	1171.57715	706.85077	859.59454	1557.76611	682.85333	637.53235	817.15076	728.12415	565.61932	732.71454	715.27631	121.63739	1353.01123	576.54620	791.47083	1214.47192	563.37207	783.53607	1311.11279	557.87146	721.05750	726.27637	858.81708	467.72321	706.97992	846.48602	347.23715	894.88068	562.69623	1061.47656	1001.63171	568.75378	1019.06378	1014.36237	549.74066	966.44513	859.85938	527.02808	960.08807	969.08606	546.20728	917.31323	827.16992	898.33685	843.85205	850.65942	883.52637	708.74725	711.29004	893.08685	823.73608	739.97278	868.73419	692.88373	812.71307	628.14679	1147.00989	621.37421	689.23181	1108.06091	800.05908	877.95227	1101.12207	622.81500	769.28973	1097.61792	711.49835	782.05505	1614.06274	748.45276	618.73016	1585.57471	762.49866	961.17480	1571.38196	841.57678	777.37170	1524.86792	
81	1.600	1156.13062	579.17670	860.32019	1241.30530	576.27631	832.33734	1551.19897	585.55383	599.97101	1541.21838	625.76074	498.40018	1674.84900	570.27826	655.93060	1659.50537	632.68970	706.32587	784.95135	850.00250	565.27960	814.26373	838.55713	444.13467	701.80396	804.47070	113.30652	623.55054	752.78619	75.84138	814.72595	849.24023	41.73769	863.32184	793.20959	67.91390	1165.24084	706.95984	844.47571	1543.65662	681.37201	609.18530	817.90820	728.36615	565.30237	732.73950	715.30634	121.73891	1344.33826	575.77972	770.21375	1205.42224	563.15851	766.99854	1299.99890	557.31079	701.19922	727.58667	859.44403	467.26138	708.02112	847.28516	347.18948	895.04822	564.09125	1055.79468	1000.19189	569.85376	1010.01471	1011.87604	550.71149	956.49677	856.82086	527.74805	955.80627	964.76758	546.46088	909.91632	828.59949	899.24225	843.19818	852.11011	884.51587	708.19696	712.88995	894.81189	823.33667	741.43488	870.09656	692.33295	813.76227	628.43933	1145.08826	621.40698	690.88068	1107.72156	802.24420	878.68176	1100.57678	624.21619	771.02747	1097.78992	710.63074	782.43945	1614.17908	748.30182	619.22833	1585.80481	761.50714	961.71881	1571.50842	841.33441	778.02545	1525.42566	
